<svg id="visual" viewBox="0 0 960 540" width="960" height="540" xmlns="http://www.w3.org/2000/svg" xmlns:xlink="http://www.w3.org/1999/xlink" version="1.1"><rect x="0" y="0" width="960" height="540" fill="#1e1e2e"></rect><defs><linearGradient id="grad1_0" x1="43.8%" y1="100%" x2="100%" y2="0%"><stop offset="14.444444444444446%" stop-color="#45475a" stop-opacity="1"></stop><stop offset="85.55555555555554%" stop-color="#45475a" stop-opacity="1"></stop></linearGradient></defs><defs><linearGradient id="grad1_1" x1="43.8%" y1="100%" x2="100%" y2="0%"><stop offset="14.444444444444446%" stop-color="#45475a" stop-opacity="1"></stop><stop offset="85.55555555555554%" stop-color="#38394b" stop-opacity="1"></stop></linearGradient></defs><defs><linearGradient id="grad1_2" x1="43.8%" y1="100%" x2="100%" y2="0%"><stop offset="14.444444444444446%" stop-color="#2b2b3c" stop-opacity="1"></stop><stop offset="85.55555555555554%" stop-color="#38394b" stop-opacity="1"></stop></linearGradient></defs><defs><linearGradient id="grad1_3" x1="43.8%" y1="100%" x2="100%" y2="0%"><stop offset="14.444444444444446%" stop-color="#2b2b3c" stop-opacity="1"></stop><stop offset="85.55555555555554%" stop-color="#1e1e2e" stop-opacity="1"></stop></linearGradient></defs><defs><linearGradient id="grad2_0" x1="0%" y1="100%" x2="56.3%" y2="0%"><stop offset="14.444444444444446%" stop-color="#45475a" stop-opacity="1"></stop><stop offset="85.55555555555554%" stop-color="#45475a" stop-opacity="1"></stop></linearGradient></defs><defs><linearGradient id="grad2_1" x1="0%" y1="100%" x2="56.3%" y2="0%"><stop offset="14.444444444444446%" stop-color="#38394b" stop-opacity="1"></stop><stop offset="85.55555555555554%" stop-color="#45475a" stop-opacity="1"></stop></linearGradient></defs><defs><linearGradient id="grad2_2" x1="0%" y1="100%" x2="56.3%" y2="0%"><stop offset="14.444444444444446%" stop-color="#38394b" stop-opacity="1"></stop><stop offset="85.55555555555554%" stop-color="#2b2b3c" stop-opacity="1"></stop></linearGradient></defs><defs><linearGradient id="grad2_3" x1="0%" y1="100%" x2="56.3%" y2="0%"><stop offset="14.444444444444446%" stop-color="#1e1e2e" stop-opacity="1"></stop><stop offset="85.55555555555554%" stop-color="#2b2b3c" stop-opacity="1"></stop></linearGradient></defs><g transform="translate(960, 540)"><path d="M-486 0C-487.5 -71.8 -489 -143.6 -449 -186C-409 -228.3 -327.5 -241.2 -278.6 -278.6C-229.7 -316 -213.6 -378 -172.6 -416.7C-131.6 -455.3 -65.8 -470.7 0 -486L0 0Z" fill="#242435"></path><path d="M-364.5 0C-365.6 -53.9 -366.8 -107.7 -336.8 -139.5C-306.7 -171.2 -245.6 -180.9 -209 -209C-172.3 -237 -160.2 -283.5 -129.4 -312.5C-98.7 -341.5 -49.4 -353 0 -364.5L0 0Z" fill="#313243"></path><path d="M-243 0C-243.8 -35.9 -244.5 -71.8 -224.5 -93C-204.5 -114.2 -163.7 -120.6 -139.3 -139.3C-114.9 -158 -106.8 -189 -86.3 -208.3C-65.8 -227.7 -32.9 -235.3 0 -243L0 0Z" fill="#3e4052"></path><path d="M-121.5 0C-121.9 -18 -122.3 -35.9 -112.3 -46.5C-102.2 -57.1 -81.9 -60.3 -69.7 -69.7C-57.4 -79 -53.4 -94.5 -43.1 -104.2C-32.9 -113.8 -16.5 -117.7 0 -121.5L0 0Z" fill="#45475a"></path></g><g transform="translate(0, 0)"><path d="M486 0C470.4 65 454.9 130 418.5 173.4C382.1 216.7 325 238.4 287.1 287.1C249.2 335.7 230.6 411.4 186 449C141.4 486.6 70.7 486.3 0 486L0 0Z" fill="#242435"></path><path d="M364.5 0C352.8 48.7 341.2 97.5 313.9 130C286.6 162.5 243.7 178.8 215.3 215.3C186.9 251.8 173 308.5 139.5 336.8C106 365 53 364.7 0 364.5L0 0Z" fill="#313243"></path><path d="M243 0C235.2 32.5 227.4 65 209.3 86.7C191.1 108.4 162.5 119.2 143.5 143.5C124.6 167.9 115.3 205.7 93 224.5C70.7 243.3 35.3 243.2 0 243L0 0Z" fill="#3e4052"></path><path d="M121.5 0C117.6 16.2 113.7 32.5 104.6 43.3C95.5 54.2 81.2 59.6 71.8 71.8C62.3 83.9 57.7 102.8 46.5 112.3C35.3 121.7 17.7 121.6 0 121.5L0 0Z" fill="#45475a"></path></g></svg>