<svg id="visual" viewBox="0 0 960 540" width="960" height="540" xmlns="http://www.w3.org/2000/svg" xmlns:xlink="http://www.w3.org/1999/xlink" version="1.1"><rect x="0" y="0" width="960" height="540" fill="#232634"></rect><defs><linearGradient id="grad1_0" x1="43.8%" y1="100%" x2="100%" y2="0%"><stop offset="14.444444444444446%" stop-color="#303446" stop-opacity="1"></stop><stop offset="85.55555555555554%" stop-color="#303446" stop-opacity="1"></stop></linearGradient></defs><defs><linearGradient id="grad1_1" x1="43.8%" y1="100%" x2="100%" y2="0%"><stop offset="14.444444444444446%" stop-color="#303446" stop-opacity="1"></stop><stop offset="85.55555555555554%" stop-color="#292d3d" stop-opacity="1"></stop></linearGradient></defs><defs><linearGradient id="grad1_2" x1="43.8%" y1="100%" x2="100%" y2="0%"><stop offset="14.444444444444446%" stop-color="#232634" stop-opacity="1"></stop><stop offset="85.55555555555554%" stop-color="#292d3d" stop-opacity="1"></stop></linearGradient></defs><defs><linearGradient id="grad2_0" x1="0%" y1="100%" x2="56.3%" y2="0%"><stop offset="14.444444444444446%" stop-color="#303446" stop-opacity="1"></stop><stop offset="85.55555555555554%" stop-color="#303446" stop-opacity="1"></stop></linearGradient></defs><defs><linearGradient id="grad2_1" x1="0%" y1="100%" x2="56.3%" y2="0%"><stop offset="14.444444444444446%" stop-color="#292d3d" stop-opacity="1"></stop><stop offset="85.55555555555554%" stop-color="#303446" stop-opacity="1"></stop></linearGradient></defs><defs><linearGradient id="grad2_2" x1="0%" y1="100%" x2="56.3%" y2="0%"><stop offset="14.444444444444446%" stop-color="#292d3d" stop-opacity="1"></stop><stop offset="85.55555555555554%" stop-color="#232634" stop-opacity="1"></stop></linearGradient></defs><g transform="translate(960, 540)"><path d="M-466 0C-466 -27.9 -466.1 -55.7 -456 -80.4C-445.9 -105.1 -425.6 -126.6 -419.1 -152.5C-412.6 -178.5 -419.7 -209 -419.2 -242C-418.6 -275 -410.4 -310.5 -381.5 -320.1C-352.5 -329.7 -302.8 -313.3 -283.5 -337.8C-264.1 -362.3 -275.1 -427.7 -256.5 -444.3C-237.9 -460.8 -189.7 -428.4 -157.7 -433.2C-125.7 -437.9 -109.9 -479.8 -86.3 -489.4C-62.7 -499.1 -31.4 -476.5 0 -454L0 0Z" fill="#262938"></path><path d="M-310.7 0C-310.7 -18.6 -310.7 -37.1 -304 -53.6C-297.2 -70 -283.8 -84.4 -279.4 -101.7C-275 -119 -279.8 -139.3 -279.4 -161.3C-279.1 -183.3 -273.6 -207 -254.3 -213.4C-235 -219.8 -201.9 -208.9 -189 -225.2C-176.1 -241.6 -183.4 -285.2 -171 -296.2C-158.6 -307.2 -126.4 -285.6 -105.1 -288.8C-83.8 -292 -73.3 -319.9 -57.5 -326.3C-41.8 -332.7 -20.9 -317.7 0 -302.7L0 0Z" fill="#2d3041"></path><path d="M-155.3 0C-155.3 -9.3 -155.4 -18.6 -152 -26.8C-148.6 -35 -141.9 -42.2 -139.7 -50.8C-137.5 -59.5 -139.9 -69.7 -139.7 -80.7C-139.5 -91.7 -136.8 -103.5 -127.2 -106.7C-117.5 -109.9 -100.9 -104.4 -94.5 -112.6C-88 -120.8 -91.7 -142.6 -85.5 -148.1C-79.3 -153.6 -63.2 -142.8 -52.6 -144.4C-41.9 -146 -36.6 -159.9 -28.8 -163.1C-20.9 -166.4 -10.5 -158.8 0 -151.3L0 0Z" fill="#303446"></path></g><g transform="translate(0, 0)"><path d="M468 0C465.8 27.1 463.6 54.1 456 80.4C448.3 106.7 435.1 132.2 418.2 152.2C401.2 172.2 380.5 186.7 381.9 220.5C383.3 254.3 406.8 307.4 393 329.8C379.2 352.1 328 343.8 298.3 355.4C268.5 367.1 260.1 398.6 240 415.7C219.9 432.8 188 435.4 159 437C130.1 438.5 104 439 78 442.2C51.9 445.3 26 451.2 0 457L0 0Z" fill="#262938"></path><path d="M312 0C310.5 18 309.1 36.1 304 53.6C298.9 71.1 290.1 88.1 278.8 101.5C267.5 114.8 253.7 124.5 254.6 147C255.5 169.5 271.2 204.9 262 219.8C252.8 234.8 218.7 229.2 198.8 237C179 244.7 173.4 265.7 160 277.1C146.6 288.5 125.3 290.3 106 291.3C86.7 292.3 69.3 292.7 52 294.8C34.6 296.9 17.3 300.8 0 304.7L0 0Z" fill="#2d3041"></path><path d="M156 0C155.3 9 154.5 18 152 26.8C149.4 35.6 145 44.1 139.4 50.7C133.7 57.4 126.8 62.2 127.3 73.5C127.8 84.8 135.6 102.5 131 109.9C126.4 117.4 109.3 114.6 99.4 118.5C89.5 122.4 86.7 132.9 80 138.6C73.3 144.3 62.7 145.1 53 145.7C43.4 146.2 34.7 146.3 26 147.4C17.3 148.4 8.7 150.4 0 152.3L0 0Z" fill="#303446"></path></g></svg>